Coordinates
version=1
nRows=8
nColumns=36
inDegrees=yes

Units are S.I. units (second, meters, Newtons, ...)
If the header above contains a line with 'inDegrees', this indicates whether rotational values are in degrees (yes) or radians (no).

endheader
time	pelvis_tilt	pelvis_list	pelvis_rotation	pelvis_tx	pelvis_ty	pelvis_tz	hip_flexion_r	hip_adduction_r	hip_rotation_r	knee_angle_r	knee_angle_r_beta	ankle_angle_r	subtalar_angle_r	mtp_angle_r	hip_flexion_l	hip_adduction_l	hip_rotation_l	knee_angle_l	knee_angle_l_beta	ankle_angle_l	subtalar_angle_l	mtp_angle_l	lumbar_extension	lumbar_bending	lumbar_rotation	arm_flex_r	arm_add_r	arm_rot_r	elbow_flex_r	pro_sup_r	arm_flex_l	arm_add_l	arm_rot_l	elbow_flex_l	pro_sup_l
      1.74000000	     -6.01993245	      4.71141324	     81.69186087	     -0.23774643	      0.96140837	     -1.05088842	     12.62385287	    -11.43196861	     -0.45429617	     67.83775873	      1.18399225	    -20.09126015	    -31.97249496	     -7.49999996	      3.10607075	      9.31172351	    -17.22377049	     14.96868545	      0.26125285	      6.57429090	      0.75672543	     -7.49999996	    -15.80490789	     -7.69869698	      3.36423257	      3.05685414	     -6.56155628	    -23.51811997	     54.48637518	    102.84440174	      1.17065368	     -4.96851832	    -41.88327862	     28.79006742	     86.25967984
      1.75000000	     -5.78052871	      4.68209198	     81.94619705	     -0.23871210	      0.96251372	     -1.06168469	     14.13812577	    -11.28255039	     -0.91096677	     68.11568724	      1.18884301	    -17.80488105	    -32.67930784	     -7.49999995	      1.92668875	      9.32708274	    -16.98660431	     14.08006083	      0.24574342	      6.74467028	      1.28460930	     -7.49999995	    -16.01063406	     -7.27675997	      2.90113240	      2.89112416	     -6.71707207	    -23.76609597	     53.76174092	    101.36111403	      1.79697484	     -5.04293185	    -40.83966182	     29.34356482	     85.16736213
      1.76000000	     -5.49354780	      4.73577052	     82.25985616	     -0.23962889	      0.96365764	     -1.07256019	     15.41291317	    -11.05856883	     -1.44108777	     68.00882593	      1.18697793	    -15.37852135	    -33.06760021	     -7.49999994	      0.62310380	      9.29609251	    -16.69781824	     13.15108920	      0.22952981	      6.95373145	      2.07497422	     -7.49999994	    -16.29275931	     -6.79866982	      2.43449107	      2.72443970	     -6.80173790	    -24.19229635	     53.02631768	    100.37929004	      2.50793562	     -5.16385126	    -39.75046176	     29.75003910	     84.28837638
      1.77000000	     -5.22938453	      4.50579360	     82.63348453	     -0.24054118	      0.96414758	     -1.08316545	     16.96866869	    -10.82987873	     -2.05621085	     67.68409858	      1.18131037	    -12.93866563	    -33.22369993	     -7.49999992	     -0.26993930	      9.15294585	    -16.64520501	     12.44570819	      0.21721859	      7.29681616	      3.22271600	     -7.49999992	    -16.27810600	     -6.31640967	      1.88428829	      2.68296633	     -6.76202136	    -25.04410504	     52.12791840	    103.82998706	      3.19534080	     -5.38356523	    -38.94078614	     30.10746535	     86.66984958
      1.78000000	     -4.93892868	      4.36423686	     83.04746579	     -0.24141976	      0.96462019	     -1.09387519	     18.34054886	    -10.56335989	     -2.68307900	     67.09856837	      1.17109094	    -10.62513177	    -33.26585518	     -7.49999990	     -1.25472393	      8.99148745	    -16.53762436	     11.72134171	      0.20457601	      7.65031097	      4.19688367	     -7.49999990	    -16.34552394	     -5.82073045	      1.36120109	      2.52002713	     -6.80964701	    -25.57227117	     51.32926434	    103.76812360	      3.92255447	     -5.53362922	    -38.14598622	     30.58371720	     87.59812873
      1.79000000	     -4.57233318	      4.32103971	     83.56331775	     -0.24229754	      0.96508144	     -1.10456662	     19.45930396	    -10.24252845	     -3.42854573	     66.14735677	      1.15448917	     -8.67738518	    -33.12637615	     -7.49999990	     -2.36076598	      8.74318634	    -16.28346078	     10.99956010	      0.19197854	      7.96024019	      5.02937100	     -7.49999990	    -16.54595488	     -5.23422651	      0.78201450	      2.28267306	     -6.90220674	    -25.88621283	     50.66511232	    101.64968408	      4.74159576	     -5.67373254	    -37.17029651	     30.95607525	     86.15819779
      1.80000000	     -4.39744050	      4.05227324	     84.09674365	     -0.24339351	      0.96502388	     -1.11501463	     20.82625812	    -10.11894792	     -4.13013444	     64.97654538	      1.13405465	     -7.16659573	    -32.99209488	     -7.49999990	     -3.06236926	      8.64587864	    -16.02581047	     10.51285973	      0.18348402	      8.07251315	      5.47578393	     -7.49999990	    -16.47323856	     -4.82060866	      0.12179825	      2.10674403	     -7.03757099	    -26.03528691	     49.82681203	     99.26488416	      5.55999134	     -5.84718150	    -36.17011428	     31.28334966	     84.42082403
      1.81000000	     -4.10515522	      4.03747532	     84.56488916	     -0.24394684	      0.96504084	     -1.12580052	     21.72994017	     -9.75187533	     -4.67344254	     63.42493991	      1.10697403	     -5.65457923	    -32.72530449	     -7.49999989	     -4.04082547	      8.32572178	    -16.41230049	     10.14113254	      0.17699615	      8.69319427	      7.49737896	     -7.49999989	    -16.68298322	     -4.35831127	     -0.33828841	      1.92425266	     -6.81421527	    -27.42337086	     49.23816653	    103.19591690	      6.20076210	     -6.26455991	    -34.49449863	     31.89160316	     86.24645849
